G04 Title: (unknown), Fabrication Drawing *
G04 Creator: pcb-bin 20050315 *
G04 CreationDate: Thu Jun  9 05:21:42 2005 UTC *
G04 For: alan *
G04 Format: Gerber/RS-274X *
G04 PCB-Dimensions: 300000 390000 *
G04 PCB-Coordinate-Origin: lower left *
%MOIN*%
%FSLAX24Y24*%
%IPPOS*%
%ADD11C,0.0250*%
%ADD12C,0.0450*%
%ADD13C,0.0850*%
%ADD14C,0.0700*%
%ADD15C,0.1100*%
%ADD16C,0.0750*%
%ADD17C,0.0810*%
%ADD18C,0.0870*%
%ADD19C,0.1850*%
%ADD20C,0.1270*%
%ADD21C,0.1030*%
%ADD22C,0.0690*%
%ADD23C,0.1470*%
%ADD24C,0.1630*%
%ADD25C,0.1770*%
%ADD26C,0.1400*%
%ADD27R,0.0700X0.0700*%
%ADD28C,0.1000X0.0700*%
%ADD29C,0.1000*%
%ADD30C,0.0100*%
%ADD31C,0.0080*%
%ADD32C,0.0150*%
%ADD33C,0.0210*%
%AMTHERM1*7,0,0,0.0900,0.0700,0.0210,45*%
%ADD34THERM1*%
%ADD35R,0.0600X0.0600*%
%ADD36C,0.0600*%
%ADD37C,0.0200*%
%ADD38R,0.0660X0.0660*%
%ADD39C,0.0660*%
%ADD40C,0.0900*%
%ADD41C,0.0900X0.0700*%
%ADD42R,0.0900X0.0900X0.0700X0.0700*%
%ADD43R,0.0900X0.0900*%
%AMTHERM2*7,0,0,0.0900,0.0600,0.0200,45*%
%ADD44THERM2*%
%AMTHERM3*7,0,0,0.0840,0.0700,0.0210,45*%
%ADD45THERM3*%
%ADD46C,0.0901*%
%ADD47C,0.0800*%
%ADD48C,0.1000X0.0800*%
%ADD49C,0.0128*%
%ADD50C,0.0084*%
%ADD51C,0.0650*%
%ADD52C,0.1700*%
%ADD53C,0.1080*%
%ADD54C,0.1080X0.0650*%
%ADD55C,0.0225*%
%AMTHERM4*7,0,0,0.0900,0.0650,0.0225,45*%
%ADD56THERM4*%
%ADD57C,0.0900X0.0650*%
%ADD58C,0.1060*%
%ADD59C,0.1060X0.0650*%
%ADD60C,0.1160*%
%ADD61C,0.1160X0.0650*%
%LNGROUP_1*%
%LPD*%
G01X0Y0D02*
G54D31*X890Y2210D02*X1210D01*
X890D02*Y1890D01*
X1210D01*
Y2210D02*Y1890D01*
X890Y38210D02*X1210D01*
X890D02*Y37890D01*
X1210D01*
Y38210D02*Y37890D01*
X28790Y2210D02*X29110D01*
X28790D02*Y1890D01*
X29110D01*
Y2210D02*Y1890D01*
X28790Y38210D02*X29110D01*
X28790D02*Y37890D01*
X29110D01*
Y38210D02*Y37890D01*
X1340Y40285D02*X1660D01*
X1340D02*Y39965D01*
X1660D01*
Y40285D02*Y39965D01*
G04 Text: YES *
X13500Y40500D02*Y40425D01*
X13650Y40275D01*
X13800Y40425D01*
Y40500D02*Y40425D01*
X13650Y40275D02*Y39900D01*
X13980Y40200D02*X14205D01*
X13980Y39900D02*X14280D01*
X13980Y40500D02*Y39900D01*
Y40500D02*X14280D01*
X14760D02*X14835Y40425D01*
X14535Y40500D02*X14760D01*
X14460Y40425D02*X14535Y40500D01*
X14460Y40425D02*Y40275D01*
X14535Y40200D01*
X14760D01*
X14835Y40125D01*
Y39975D01*
X14760Y39900D02*X14835Y39975D01*
X14535Y39900D02*X14760D01*
X14460Y39975D02*X14535Y39900D01*
X13500Y39574D02*X15015D01*
G04 Text: 4 *
X9800Y40200D02*X10100Y40500D01*
X9800Y40200D02*X10175D01*
X10100Y40500D02*Y39900D01*
X9800Y39574D02*X10355D01*
G04 Text: 0.078 *
X4500Y39975D02*X4575Y39900D01*
X4500Y40425D02*Y39975D01*
Y40425D02*X4575Y40500D01*
X4725D01*
X4800Y40425D01*
Y39975D01*
X4725Y39900D02*X4800Y39975D01*
X4575Y39900D02*X4725D01*
X4500Y40050D02*X4800Y40350D01*
X4980Y39900D02*X5055D01*
X5235Y39975D02*X5310Y39900D01*
X5235Y40425D02*Y39975D01*
Y40425D02*X5310Y40500D01*
X5460D01*
X5535Y40425D01*
Y39975D01*
X5460Y39900D02*X5535Y39975D01*
X5310Y39900D02*X5460D01*
X5235Y40050D02*X5535Y40350D01*
X5715Y39900D02*X6090Y40275D01*
Y40500D02*Y40275D01*
X5715Y40500D02*X6090D01*
X6270Y39975D02*X6345Y39900D01*
X6270Y40125D02*Y39975D01*
Y40125D02*X6345Y40200D01*
X6495D01*
X6570Y40125D01*
Y39975D01*
X6495Y39900D02*X6570Y39975D01*
X6345Y39900D02*X6495D01*
X6270Y40275D02*X6345Y40200D01*
X6270Y40425D02*Y40275D01*
Y40425D02*X6345Y40500D01*
X6495D01*
X6570Y40425D01*
Y40275D01*
X6495Y40200D02*X6570Y40275D01*
X4500Y39574D02*X6750D01*
X2670Y20800D02*G75*G03X2830Y20800I80J0D01*G01*
G75*G03X2670Y20800I-80J0D01*G01*
Y22800D02*G75*G03X2830Y22800I80J0D01*G01*
G75*G03X2670Y22800I-80J0D01*G01*
X2656Y27231D02*G75*G03X2816Y27231I80J0D01*G01*
G75*G03X2656Y27231I-80J0D01*G01*
Y29231D02*G75*G03X2816Y29231I80J0D01*G01*
G75*G03X2656Y29231I-80J0D01*G01*
Y31231D02*G75*G03X2816Y31231I80J0D01*G01*
G75*G03X2656Y31231I-80J0D01*G01*
Y33231D02*G75*G03X2816Y33231I80J0D01*G01*
G75*G03X2656Y33231I-80J0D01*G01*
X7270Y32250D02*G75*G03X7430Y32250I80J0D01*G01*
G75*G03X7270Y32250I-80J0D01*G01*
X7770Y34250D02*G75*G03X7930Y34250I80J0D01*G01*
G75*G03X7770Y34250I-80J0D01*G01*
X8270Y32250D02*G75*G03X8430Y32250I80J0D01*G01*
G75*G03X8270Y32250I-80J0D01*G01*
X8770Y34250D02*G75*G03X8930Y34250I80J0D01*G01*
G75*G03X8770Y34250I-80J0D01*G01*
X9270Y32250D02*G75*G03X9430Y32250I80J0D01*G01*
G75*G03X9270Y32250I-80J0D01*G01*
X9770Y34250D02*G75*G03X9930Y34250I80J0D01*G01*
G75*G03X9770Y34250I-80J0D01*G01*
X10270Y32250D02*G75*G03X10430Y32250I80J0D01*G01*
G75*G03X10270Y32250I-80J0D01*G01*
X10770Y34250D02*G75*G03X10930Y34250I80J0D01*G01*
G75*G03X10770Y34250I-80J0D01*G01*
X11270Y32250D02*G75*G03X11430Y32250I80J0D01*G01*
G75*G03X11270Y32250I-80J0D01*G01*
X11770Y34250D02*G75*G03X11930Y34250I80J0D01*G01*
G75*G03X11770Y34250I-80J0D01*G01*
X12270Y32250D02*G75*G03X12430Y32250I80J0D01*G01*
G75*G03X12270Y32250I-80J0D01*G01*
X12770Y34250D02*G75*G03X12930Y34250I80J0D01*G01*
G75*G03X12770Y34250I-80J0D01*G01*
X13270Y32250D02*G75*G03X13430Y32250I80J0D01*G01*
G75*G03X13270Y32250I-80J0D01*G01*
X13770Y34250D02*G75*G03X13930Y34250I80J0D01*G01*
G75*G03X13770Y34250I-80J0D01*G01*
X14270Y32250D02*G75*G03X14430Y32250I80J0D01*G01*
G75*G03X14270Y32250I-80J0D01*G01*
X19470D02*G75*G03X19630Y32250I80J0D01*G01*
G75*G03X19470Y32250I-80J0D01*G01*
X19970Y34250D02*G75*G03X20130Y34250I80J0D01*G01*
G75*G03X19970Y34250I-80J0D01*G01*
X20470Y32250D02*G75*G03X20630Y32250I80J0D01*G01*
G75*G03X20470Y32250I-80J0D01*G01*
X20970Y34250D02*G75*G03X21130Y34250I80J0D01*G01*
G75*G03X20970Y34250I-80J0D01*G01*
X21470Y32250D02*G75*G03X21630Y32250I80J0D01*G01*
G75*G03X21470Y32250I-80J0D01*G01*
X21970Y34250D02*G75*G03X22130Y34250I80J0D01*G01*
G75*G03X21970Y34250I-80J0D01*G01*
X22470Y32250D02*G75*G03X22630Y32250I80J0D01*G01*
G75*G03X22470Y32250I-80J0D01*G01*
X22970Y34250D02*G75*G03X23130Y34250I80J0D01*G01*
G75*G03X22970Y34250I-80J0D01*G01*
X23470Y32250D02*G75*G03X23630Y32250I80J0D01*G01*
G75*G03X23470Y32250I-80J0D01*G01*
X23970Y34250D02*G75*G03X24130Y34250I80J0D01*G01*
G75*G03X23970Y34250I-80J0D01*G01*
X24470Y32250D02*G75*G03X24630Y32250I80J0D01*G01*
G75*G03X24470Y32250I-80J0D01*G01*
X24970Y34250D02*G75*G03X25130Y34250I80J0D01*G01*
G75*G03X24970Y34250I-80J0D01*G01*
X25470Y32250D02*G75*G03X25630Y32250I80J0D01*G01*
G75*G03X25470Y32250I-80J0D01*G01*
X25970Y34250D02*G75*G03X26130Y34250I80J0D01*G01*
G75*G03X25970Y34250I-80J0D01*G01*
X26470Y32250D02*G75*G03X26630Y32250I80J0D01*G01*
G75*G03X26470Y32250I-80J0D01*G01*
X1420Y41625D02*G75*G03X1580Y41625I80J0D01*G01*
G75*G03X1420Y41625I-80J0D01*G01*
G04 Text: YES *
X13500Y42000D02*Y41925D01*
X13650Y41775D01*
X13800Y41925D01*
Y42000D02*Y41925D01*
X13650Y41775D02*Y41400D01*
X13980Y41700D02*X14205D01*
X13980Y41400D02*X14280D01*
X13980Y42000D02*Y41400D01*
Y42000D02*X14280D01*
X14760D02*X14835Y41925D01*
X14535Y42000D02*X14760D01*
X14460Y41925D02*X14535Y42000D01*
X14460Y41925D02*Y41775D01*
X14535Y41700D01*
X14760D01*
X14835Y41625D01*
Y41475D01*
X14760Y41400D02*X14835Y41475D01*
X14535Y41400D02*X14760D01*
X14460Y41475D02*X14535Y41400D01*
X13500Y41074D02*X15015D01*
G04 Text: 36 *
X9800Y41925D02*X9875Y42000D01*
X10025D01*
X10100Y41925D01*
Y41475D01*
X10025Y41400D02*X10100Y41475D01*
X9875Y41400D02*X10025D01*
X9800Y41475D02*X9875Y41400D01*
Y41700D02*X10100D01*
X10505Y42000D02*X10580Y41925D01*
X10355Y42000D02*X10505D01*
X10280Y41925D02*X10355Y42000D01*
X10280Y41925D02*Y41475D01*
X10355Y41400D01*
X10505Y41700D02*X10580Y41625D01*
X10280Y41700D02*X10505D01*
X10355Y41400D02*X10505D01*
X10580Y41475D01*
Y41625D02*Y41475D01*
X9800Y41074D02*X10760D01*
G04 Text: 0.038 *
X4500Y41475D02*X4575Y41400D01*
X4500Y41925D02*Y41475D01*
Y41925D02*X4575Y42000D01*
X4725D01*
X4800Y41925D01*
Y41475D01*
X4725Y41400D02*X4800Y41475D01*
X4575Y41400D02*X4725D01*
X4500Y41550D02*X4800Y41850D01*
X4980Y41400D02*X5055D01*
X5235Y41475D02*X5310Y41400D01*
X5235Y41925D02*Y41475D01*
Y41925D02*X5310Y42000D01*
X5460D01*
X5535Y41925D01*
Y41475D01*
X5460Y41400D02*X5535Y41475D01*
X5310Y41400D02*X5460D01*
X5235Y41550D02*X5535Y41850D01*
X5715Y41925D02*X5790Y42000D01*
X5940D01*
X6015Y41925D01*
Y41475D01*
X5940Y41400D02*X6015Y41475D01*
X5790Y41400D02*X5940D01*
X5715Y41475D02*X5790Y41400D01*
Y41700D02*X6015D01*
X6195Y41475D02*X6270Y41400D01*
X6195Y41625D02*Y41475D01*
Y41625D02*X6270Y41700D01*
X6420D01*
X6495Y41625D01*
Y41475D01*
X6420Y41400D02*X6495Y41475D01*
X6270Y41400D02*X6420D01*
X6195Y41775D02*X6270Y41700D01*
X6195Y41925D02*Y41775D01*
Y41925D02*X6270Y42000D01*
X6420D01*
X6495Y41925D01*
Y41775D01*
X6420Y41700D02*X6495Y41775D01*
X4500Y41074D02*X6675D01*
X7030Y1920D02*X7270Y1680D01*
X7030D02*X7270Y1920D01*
X7030Y920D02*X7270Y680D01*
X7030D02*X7270Y920D01*
X19080Y1920D02*X19320Y1680D01*
X19080D02*X19320Y1920D01*
X19080Y920D02*X19320Y680D01*
X19080D02*X19320Y920D01*
X18080Y1920D02*X18320Y1680D01*
X18080D02*X18320Y1920D01*
X18080Y920D02*X18320Y680D01*
X18080D02*X18320Y920D01*
X17080Y1920D02*X17320Y1680D01*
X17080D02*X17320Y1920D01*
X17080Y920D02*X17320Y680D01*
X17080D02*X17320Y920D01*
X16080Y1920D02*X16320Y1680D01*
X16080D02*X16320Y1920D01*
X16080Y920D02*X16320Y680D01*
X16080D02*X16320Y920D01*
X15080Y1920D02*X15320Y1680D01*
X15080D02*X15320Y1920D01*
X15080Y920D02*X15320Y680D01*
X15080D02*X15320Y920D01*
X6030Y1920D02*X6270Y1680D01*
X6030D02*X6270Y1920D01*
X6030Y920D02*X6270Y680D01*
X6030D02*X6270Y920D01*
X1380Y43245D02*X1620Y43005D01*
X1380D02*X1620Y43245D01*
G04 Text: YES *
X13500Y43500D02*Y43425D01*
X13650Y43275D01*
X13800Y43425D01*
Y43500D02*Y43425D01*
X13650Y43275D02*Y42900D01*
X13980Y43200D02*X14205D01*
X13980Y42900D02*X14280D01*
X13980Y43500D02*Y42900D01*
Y43500D02*X14280D01*
X14760D02*X14835Y43425D01*
X14535Y43500D02*X14760D01*
X14460Y43425D02*X14535Y43500D01*
X14460Y43425D02*Y43275D01*
X14535Y43200D01*
X14760D01*
X14835Y43125D01*
Y42975D01*
X14760Y42900D02*X14835Y42975D01*
X14535Y42900D02*X14760D01*
X14460Y42975D02*X14535Y42900D01*
X13500Y42574D02*X15015D01*
G04 Text: 14 *
X9875Y42900D02*X10025D01*
X9950Y43500D02*Y42900D01*
X9800Y43350D02*X9950Y43500D01*
X10205Y43200D02*X10505Y43500D01*
X10205Y43200D02*X10580D01*
X10505Y43500D02*Y42900D01*
X9800Y42574D02*X10760D01*
G04 Text: 0.030 *
X4500Y42975D02*X4575Y42900D01*
X4500Y43425D02*Y42975D01*
Y43425D02*X4575Y43500D01*
X4725D01*
X4800Y43425D01*
Y42975D01*
X4725Y42900D02*X4800Y42975D01*
X4575Y42900D02*X4725D01*
X4500Y43050D02*X4800Y43350D01*
X4980Y42900D02*X5055D01*
X5235Y42975D02*X5310Y42900D01*
X5235Y43425D02*Y42975D01*
Y43425D02*X5310Y43500D01*
X5460D01*
X5535Y43425D01*
Y42975D01*
X5460Y42900D02*X5535Y42975D01*
X5310Y42900D02*X5460D01*
X5235Y43050D02*X5535Y43350D01*
X5715Y43425D02*X5790Y43500D01*
X5940D01*
X6015Y43425D01*
Y42975D01*
X5940Y42900D02*X6015Y42975D01*
X5790Y42900D02*X5940D01*
X5715Y42975D02*X5790Y42900D01*
Y43200D02*X6015D01*
X6195Y42975D02*X6270Y42900D01*
X6195Y43425D02*Y42975D01*
Y43425D02*X6270Y43500D01*
X6420D01*
X6495Y43425D01*
Y42975D01*
X6420Y42900D02*X6495Y42975D01*
X6270Y42900D02*X6420D01*
X6195Y43050D02*X6495Y43350D01*
X4500Y42574D02*X6675D01*
X8150Y10960D02*Y10640D01*
X7990Y10800D02*X8310D01*
X7150Y10960D02*Y10640D01*
X6990Y10800D02*X7310D01*
X6150Y10960D02*Y10640D01*
X5990Y10800D02*X6310D01*
X9450Y14710D02*Y14390D01*
X9290Y14550D02*X9610D01*
X9450Y12710D02*Y12390D01*
X9290Y12550D02*X9610D01*
X4150Y6210D02*Y5890D01*
X3990Y6050D02*X4310D01*
X5150Y6210D02*Y5890D01*
X4990Y6050D02*X5310D01*
X6150Y6210D02*Y5890D01*
X5990Y6050D02*X6310D01*
X7150Y6210D02*Y5890D01*
X6990Y6050D02*X7310D01*
X8150Y6210D02*Y5890D01*
X7990Y6050D02*X8310D01*
X9150Y6210D02*Y5890D01*
X8990Y6050D02*X9310D01*
X10150Y6210D02*Y5890D01*
X9990Y6050D02*X10310D01*
X11150Y6210D02*Y5890D01*
X10990Y6050D02*X11310D01*
X12150Y6210D02*Y5890D01*
X11990Y6050D02*X12310D01*
X12150Y9210D02*Y8890D01*
X11990Y9050D02*X12310D01*
X11150Y9210D02*Y8890D01*
X10990Y9050D02*X11310D01*
X10150Y9210D02*Y8890D01*
X9990Y9050D02*X10310D01*
X9150Y9210D02*Y8890D01*
X8990Y9050D02*X9310D01*
X8150Y9210D02*Y8890D01*
X7990Y9050D02*X8310D01*
X7150Y9210D02*Y8890D01*
X6990Y9050D02*X7310D01*
X6150Y9210D02*Y8890D01*
X5990Y9050D02*X6310D01*
X5150Y9210D02*Y8890D01*
X4990Y9050D02*X5310D01*
X4150Y9210D02*Y8890D01*
X3990Y9050D02*X4310D01*
X8150Y12710D02*Y12390D01*
X7990Y12550D02*X8310D01*
X8150Y14710D02*Y14390D01*
X7990Y14550D02*X8310D01*
X12302Y27174D02*Y26854D01*
X12142Y27014D02*X12462D01*
X9354Y27175D02*Y26855D01*
X9194Y27015D02*X9514D01*
X9350Y30160D02*Y29840D01*
X9190Y30000D02*X9510D01*
X7350Y30160D02*Y29840D01*
X7190Y30000D02*X7510D01*
X16250Y31560D02*Y31240D01*
X16090Y31400D02*X16410D01*
X16250Y33560D02*Y33240D01*
X16090Y33400D02*X16410D01*
X23525Y23219D02*Y22899D01*
X23365Y23059D02*X23685D01*
X21556Y23219D02*Y22899D01*
X21396Y23059D02*X21716D01*
X16250Y30110D02*Y29790D01*
X16090Y29950D02*X16410D01*
X14250Y30110D02*Y29790D01*
X14090Y29950D02*X14410D01*
X28550Y30110D02*Y29790D01*
X28390Y29950D02*X28710D01*
X26550Y30110D02*Y29790D01*
X26390Y29950D02*X26710D01*
X11325Y23219D02*Y22899D01*
X11165Y23059D02*X11485D01*
X9356Y23219D02*Y22899D01*
X9196Y23059D02*X9516D01*
X21550Y30160D02*Y29840D01*
X21390Y30000D02*X21710D01*
X19550Y30160D02*Y29840D01*
X19390Y30000D02*X19710D01*
X24502Y27174D02*Y26854D01*
X24342Y27014D02*X24662D01*
X21554Y27175D02*Y26855D01*
X21394Y27015D02*X21714D01*
X6900Y14710D02*Y14390D01*
X6740Y14550D02*X7060D01*
X6900Y12710D02*Y12390D01*
X6740Y12550D02*X7060D01*
X1500Y44785D02*Y44465D01*
X1340Y44625D02*X1660D01*
G04 Text: YES *
X13500Y45000D02*Y44925D01*
X13650Y44775D01*
X13800Y44925D01*
Y45000D02*Y44925D01*
X13650Y44775D02*Y44400D01*
X13980Y44700D02*X14205D01*
X13980Y44400D02*X14280D01*
X13980Y45000D02*Y44400D01*
Y45000D02*X14280D01*
X14760D02*X14835Y44925D01*
X14535Y45000D02*X14760D01*
X14460Y44925D02*X14535Y45000D01*
X14460Y44925D02*Y44775D01*
X14535Y44700D01*
X14760D01*
X14835Y44625D01*
Y44475D01*
X14760Y44400D02*X14835Y44475D01*
X14535Y44400D02*X14760D01*
X14460Y44475D02*X14535Y44400D01*
X13500Y44074D02*X15015D01*
G04 Text: 45 *
X9800Y44700D02*X10100Y45000D01*
X9800Y44700D02*X10175D01*
X10100Y45000D02*Y44400D01*
X10355Y45000D02*X10655D01*
X10355D02*Y44700D01*
X10430Y44775D01*
X10580D01*
X10655Y44700D01*
Y44475D01*
X10580Y44400D02*X10655Y44475D01*
X10430Y44400D02*X10580D01*
X10355Y44475D02*X10430Y44400D01*
X9800Y44074D02*X10835D01*
G04 Text: 0.028 *
X4500Y44475D02*X4575Y44400D01*
X4500Y44925D02*Y44475D01*
Y44925D02*X4575Y45000D01*
X4725D01*
X4800Y44925D01*
Y44475D01*
X4725Y44400D02*X4800Y44475D01*
X4575Y44400D02*X4725D01*
X4500Y44550D02*X4800Y44850D01*
X4980Y44400D02*X5055D01*
X5235Y44475D02*X5310Y44400D01*
X5235Y44925D02*Y44475D01*
Y44925D02*X5310Y45000D01*
X5460D01*
X5535Y44925D01*
Y44475D01*
X5460Y44400D02*X5535Y44475D01*
X5310Y44400D02*X5460D01*
X5235Y44550D02*X5535Y44850D01*
X5715Y44925D02*X5790Y45000D01*
X6015D01*
X6090Y44925D01*
Y44775D01*
X5715Y44400D02*X6090Y44775D01*
X5715Y44400D02*X6090D01*
X6270Y44475D02*X6345Y44400D01*
X6270Y44625D02*Y44475D01*
Y44625D02*X6345Y44700D01*
X6495D01*
X6570Y44625D01*
Y44475D01*
X6495Y44400D02*X6570Y44475D01*
X6345Y44400D02*X6495D01*
X6270Y44775D02*X6345Y44700D01*
X6270Y44925D02*Y44775D01*
Y44925D02*X6345Y45000D01*
X6495D01*
X6570Y44925D01*
Y44775D01*
X6495Y44700D02*X6570Y44775D01*
X4500Y44074D02*X6750D01*
X22450Y6900D02*Y6740D01*
Y6900D02*X22588Y6980D01*
X22450Y6900D02*X22311Y6980D01*
X22450Y8900D02*Y8740D01*
Y8900D02*X22588Y8980D01*
X22450Y8900D02*X22311Y8980D01*
X13150Y2500D02*Y2340D01*
Y2500D02*X13288Y2580D01*
X13150Y2500D02*X13011Y2580D01*
X9150Y2500D02*Y2340D01*
Y2500D02*X9288Y2580D01*
X9150Y2500D02*X9011Y2580D01*
X5150Y3100D02*Y2940D01*
Y3100D02*X5288Y3180D01*
X5150Y3100D02*X5011Y3180D01*
X9150Y3100D02*Y2940D01*
Y3100D02*X9288Y3180D01*
X9150Y3100D02*X9011Y3180D01*
X5150Y4300D02*Y4140D01*
Y4300D02*X5288Y4380D01*
X5150Y4300D02*X5011Y4380D01*
X9150Y4300D02*Y4140D01*
Y4300D02*X9288Y4380D01*
X9150Y4300D02*X9011Y4380D01*
X13150Y3700D02*Y3540D01*
Y3700D02*X13288Y3780D01*
X13150Y3700D02*X13011Y3780D01*
X9150Y3700D02*Y3540D01*
Y3700D02*X9288Y3780D01*
X9150Y3700D02*X9011Y3780D01*
X17200Y28650D02*Y28490D01*
Y28650D02*X17338Y28730D01*
X17200Y28650D02*X17061Y28730D01*
X13200Y28650D02*Y28490D01*
Y28650D02*X13338Y28730D01*
X13200Y28650D02*X13061Y28730D01*
X29400Y28650D02*Y28490D01*
Y28650D02*X29538Y28730D01*
X29400Y28650D02*X29261Y28730D01*
X25400Y28650D02*Y28490D01*
Y28650D02*X25538Y28730D01*
X25400Y28650D02*X25261Y28730D01*
X19200Y3150D02*Y2990D01*
Y3150D02*X19338Y3230D01*
X19200Y3150D02*X19061Y3230D01*
X19200Y7150D02*Y6990D01*
Y7150D02*X19338Y7230D01*
X19200Y7150D02*X19061Y7230D01*
X16250Y27700D02*Y27540D01*
Y27700D02*X16388Y27780D01*
X16250Y27700D02*X16111Y27780D01*
X20250Y27700D02*Y27540D01*
Y27700D02*X20388Y27780D01*
X20250Y27700D02*X20111Y27780D01*
X7350Y25000D02*Y24840D01*
Y25000D02*X7488Y25080D01*
X7350Y25000D02*X7211Y25080D01*
X7350Y29000D02*Y28840D01*
Y29000D02*X7488Y29080D01*
X7350Y29000D02*X7211Y29080D01*
X13900Y1800D02*Y1640D01*
Y1800D02*X14038Y1880D01*
X13900Y1800D02*X13761Y1880D01*
X15550Y11350D02*Y11190D01*
Y11350D02*X15688Y11430D01*
X15550Y11350D02*X15411Y11430D01*
X5650Y33550D02*Y33390D01*
Y33550D02*X5788Y33630D01*
X5650Y33550D02*X5511Y33630D01*
X6400Y32950D02*Y32790D01*
Y32950D02*X6538Y33030D01*
X6400Y32950D02*X6261Y33030D01*
X5650Y26850D02*Y26690D01*
Y26850D02*X5788Y26930D01*
X5650Y26850D02*X5511Y26930D01*
X6400Y26400D02*Y26240D01*
Y26400D02*X6538Y26480D01*
X6400Y26400D02*X6261Y26480D01*
X14350Y31000D02*Y30840D01*
Y31000D02*X14488Y31080D01*
X14350Y31000D02*X14211Y31080D01*
X17200Y34250D02*Y34090D01*
Y34250D02*X17338Y34330D01*
X17200Y34250D02*X17061Y34330D01*
X17200Y31600D02*Y31440D01*
Y31600D02*X17338Y31680D01*
X17200Y31600D02*X17061Y31680D01*
X25900Y35400D02*Y35240D01*
Y35400D02*X26038Y35480D01*
X25900Y35400D02*X25761Y35480D01*
X20450Y26650D02*Y26490D01*
Y26650D02*X20588Y26730D01*
X20450Y26650D02*X20311Y26730D01*
X16850Y26650D02*Y26490D01*
Y26650D02*X16988Y26730D01*
X16850Y26650D02*X16711Y26730D01*
X18900Y32250D02*Y32090D01*
Y32250D02*X19038Y32330D01*
X18900Y32250D02*X18761Y32330D01*
X18900Y38150D02*Y37990D01*
Y38150D02*X19038Y38230D01*
X18900Y38150D02*X18761Y38230D01*
X7350Y31000D02*Y30840D01*
Y31000D02*X7488Y31080D01*
X7350Y31000D02*X7211Y31080D01*
X29250Y31150D02*Y30990D01*
Y31150D02*X29388Y31230D01*
X29250Y31150D02*X29111Y31230D01*
X26550Y31150D02*Y30990D01*
Y31150D02*X26688Y31230D01*
X26550Y31150D02*X26411Y31230D01*
X15550Y12700D02*Y12540D01*
Y12700D02*X15688Y12780D01*
X15550Y12700D02*X15411Y12780D01*
X29350Y8850D02*Y8690D01*
Y8850D02*X29488Y8930D01*
X29350Y8850D02*X29211Y8930D01*
X6050Y20000D02*Y19840D01*
Y20000D02*X6188Y20080D01*
X6050Y20000D02*X5911Y20080D01*
X11050Y20000D02*Y19840D01*
Y20000D02*X11188Y20080D01*
X11050Y20000D02*X10911Y20080D01*
X14550Y20000D02*Y19840D01*
Y20000D02*X14688Y20080D01*
X14550Y20000D02*X14411Y20080D01*
X23600Y20000D02*Y19840D01*
Y20000D02*X23738Y20080D01*
X23600Y20000D02*X23461Y20080D01*
X19650Y12450D02*Y12290D01*
Y12450D02*X19788Y12530D01*
X19650Y12450D02*X19511Y12530D01*
X24200Y35400D02*Y35240D01*
Y35400D02*X24338Y35480D01*
X24200Y35400D02*X24061Y35480D01*
X27150Y8850D02*Y8690D01*
Y8850D02*X27288Y8930D01*
X27150Y8850D02*X27011Y8930D01*
X2350Y34800D02*Y34640D01*
Y34800D02*X2488Y34880D01*
X2350Y34800D02*X2211Y34880D01*
X6050Y34800D02*Y34640D01*
Y34800D02*X6188Y34880D01*
X6050Y34800D02*X5911Y34880D01*
X600Y13600D02*Y13440D01*
Y13600D02*X738Y13680D01*
X600Y13600D02*X461Y13680D01*
X13900Y7150D02*Y6990D01*
Y7150D02*X14038Y7230D01*
X13900Y7150D02*X13761Y7230D01*
X5850Y13600D02*Y13440D01*
Y13600D02*X5988Y13680D01*
X5850Y13600D02*X5711Y13680D01*
X16900Y11250D02*Y11090D01*
Y11250D02*X17038Y11330D01*
X16900Y11250D02*X16761Y11330D01*
X16900Y7150D02*Y6990D01*
Y7150D02*X17038Y7230D01*
X16900Y7150D02*X16761Y7230D01*
X20150Y3150D02*Y2990D01*
Y3150D02*X20288Y3230D01*
X20150Y3150D02*X20011Y3230D01*
X20150Y8600D02*Y8440D01*
Y8600D02*X20288Y8680D01*
X20150Y8600D02*X20011Y8680D01*
X17050Y12450D02*Y12290D01*
Y12450D02*X17188Y12530D01*
X17050Y12450D02*X16911Y12530D01*
X25800Y9900D02*Y9740D01*
Y9900D02*X25938Y9980D01*
X25800Y9900D02*X25661Y9980D01*
X25800Y6900D02*Y6740D01*
Y6900D02*X25938Y6980D01*
X25800Y6900D02*X25661Y6980D01*
X1500Y46125D02*Y45965D01*
Y46125D02*X1638Y46205D01*
X1500Y46125D02*X1361Y46205D01*
G04 Text: YES *
X13500Y46500D02*Y46425D01*
X13650Y46275D01*
X13800Y46425D01*
Y46500D02*Y46425D01*
X13650Y46275D02*Y45900D01*
X13980Y46200D02*X14205D01*
X13980Y45900D02*X14280D01*
X13980Y46500D02*Y45900D01*
Y46500D02*X14280D01*
X14760D02*X14835Y46425D01*
X14535Y46500D02*X14760D01*
X14460Y46425D02*X14535Y46500D01*
X14460Y46425D02*Y46275D01*
X14535Y46200D01*
X14760D01*
X14835Y46125D01*
Y45975D01*
X14760Y45900D02*X14835Y45975D01*
X14535Y45900D02*X14760D01*
X14460Y45975D02*X14535Y45900D01*
X13500Y45574D02*X15015D01*
G04 Text: 58 *
X9800Y46500D02*X10100D01*
X9800D02*Y46200D01*
X9875Y46275D01*
X10025D01*
X10100Y46200D01*
Y45975D01*
X10025Y45900D02*X10100Y45975D01*
X9875Y45900D02*X10025D01*
X9800Y45975D02*X9875Y45900D01*
X10280Y45975D02*X10355Y45900D01*
X10280Y46125D02*Y45975D01*
Y46125D02*X10355Y46200D01*
X10505D01*
X10580Y46125D01*
Y45975D01*
X10505Y45900D02*X10580Y45975D01*
X10355Y45900D02*X10505D01*
X10280Y46275D02*X10355Y46200D01*
X10280Y46425D02*Y46275D01*
Y46425D02*X10355Y46500D01*
X10505D01*
X10580Y46425D01*
Y46275D01*
X10505Y46200D02*X10580Y46275D01*
X9800Y45574D02*X10760D01*
G04 Text: 0.020 *
X4500Y45975D02*X4575Y45900D01*
X4500Y46425D02*Y45975D01*
Y46425D02*X4575Y46500D01*
X4725D01*
X4800Y46425D01*
Y45975D01*
X4725Y45900D02*X4800Y45975D01*
X4575Y45900D02*X4725D01*
X4500Y46050D02*X4800Y46350D01*
X4980Y45900D02*X5055D01*
X5235Y45975D02*X5310Y45900D01*
X5235Y46425D02*Y45975D01*
Y46425D02*X5310Y46500D01*
X5460D01*
X5535Y46425D01*
Y45975D01*
X5460Y45900D02*X5535Y45975D01*
X5310Y45900D02*X5460D01*
X5235Y46050D02*X5535Y46350D01*
X5715Y46425D02*X5790Y46500D01*
X6015D01*
X6090Y46425D01*
Y46275D01*
X5715Y45900D02*X6090Y46275D01*
X5715Y45900D02*X6090D01*
X6270Y45975D02*X6345Y45900D01*
X6270Y46425D02*Y45975D01*
Y46425D02*X6345Y46500D01*
X6495D01*
X6570Y46425D01*
Y45975D01*
X6495Y45900D02*X6570Y45975D01*
X6345Y45900D02*X6495D01*
X6270Y46050D02*X6570Y46350D01*
X4500Y45574D02*X6750D01*
G04 Text: Symbol *
X300Y48000D02*X375Y47925D01*
X75Y48000D02*X300D01*
X0Y47925D02*X75Y48000D01*
X0Y47925D02*Y47775D01*
X75Y47700D01*
X300D01*
X375Y47625D01*
Y47475D01*
X300Y47400D02*X375Y47475D01*
X75Y47400D02*X300D01*
X0Y47475D02*X75Y47400D01*
X555Y47700D02*Y47475D01*
X630Y47400D01*
X855Y47700D02*Y47250D01*
X780Y47175D02*X855Y47250D01*
X630Y47175D02*X780D01*
X555Y47250D02*X630Y47175D01*
Y47400D02*X780D01*
X855Y47475D01*
X1110Y47625D02*Y47400D01*
Y47625D02*X1185Y47700D01*
X1260D01*
X1335Y47625D01*
Y47400D01*
Y47625D02*X1410Y47700D01*
X1485D01*
X1560Y47625D01*
Y47400D01*
X1035Y47700D02*X1110Y47625D01*
X1740Y48000D02*Y47400D01*
Y47475D02*X1815Y47400D01*
X1965D01*
X2040Y47475D01*
Y47625D02*Y47475D01*
X1965Y47700D02*X2040Y47625D01*
X1815Y47700D02*X1965D01*
X1740Y47625D02*X1815Y47700D01*
X2220Y47625D02*Y47475D01*
Y47625D02*X2295Y47700D01*
X2445D01*
X2520Y47625D01*
Y47475D01*
X2445Y47400D02*X2520Y47475D01*
X2295Y47400D02*X2445D01*
X2220Y47475D02*X2295Y47400D01*
X2700Y48000D02*Y47475D01*
X2775Y47400D01*
G04 Text: Diam. (Inch) *
X4175Y48000D02*Y47400D01*
X4400Y48000D02*X4475Y47925D01*
Y47475D01*
X4400Y47400D02*X4475Y47475D01*
X4100Y47400D02*X4400D01*
X4100Y48000D02*X4400D01*
X4655Y47850D02*Y47775D01*
Y47625D02*Y47400D01*
X5030Y47700D02*X5105Y47625D01*
X4880Y47700D02*X5030D01*
X4805Y47625D02*X4880Y47700D01*
X4805Y47625D02*Y47475D01*
X4880Y47400D01*
X5105Y47700D02*Y47475D01*
X5180Y47400D01*
X4880D02*X5030D01*
X5105Y47475D01*
X5435Y47625D02*Y47400D01*
Y47625D02*X5510Y47700D01*
X5585D01*
X5660Y47625D01*
Y47400D01*
Y47625D02*X5735Y47700D01*
X5810D01*
X5885Y47625D01*
Y47400D01*
X5360Y47700D02*X5435Y47625D01*
X6065Y47400D02*X6140D01*
X6590Y47475D02*X6665Y47400D01*
X6590Y47925D02*X6665Y48000D01*
X6590Y47925D02*Y47475D01*
X6845Y48000D02*X6995D01*
X6920D02*Y47400D01*
X6845D02*X6995D01*
X7251Y47625D02*Y47400D01*
Y47625D02*X7326Y47700D01*
X7401D01*
X7476Y47625D01*
Y47400D01*
X7176Y47700D02*X7251Y47625D01*
X7731Y47700D02*X7956D01*
X7656Y47625D02*X7731Y47700D01*
X7656Y47625D02*Y47475D01*
X7731Y47400D01*
X7956D01*
X8136Y48000D02*Y47400D01*
Y47625D02*X8211Y47700D01*
X8361D01*
X8436Y47625D01*
Y47400D01*
X8616Y48000D02*X8691Y47925D01*
Y47475D01*
X8616Y47400D02*X8691Y47475D01*
G04 Text: Count *
X9575Y47400D02*X9800D01*
X9500Y47475D02*X9575Y47400D01*
X9500Y47925D02*Y47475D01*
Y47925D02*X9575Y48000D01*
X9800D01*
X9980Y47625D02*Y47475D01*
Y47625D02*X10055Y47700D01*
X10205D01*
X10280Y47625D01*
Y47475D01*
X10205Y47400D02*X10280Y47475D01*
X10055Y47400D02*X10205D01*
X9980Y47475D02*X10055Y47400D01*
X10460Y47700D02*Y47475D01*
X10535Y47400D01*
X10685D01*
X10760Y47475D01*
Y47700D02*Y47475D01*
X11015Y47625D02*Y47400D01*
Y47625D02*X11090Y47700D01*
X11165D01*
X11240Y47625D01*
Y47400D01*
X10940Y47700D02*X11015Y47625D01*
X11495Y48000D02*Y47475D01*
X11570Y47400D01*
X11420Y47775D02*X11570D01*
G04 Text: Plated? *
X13075Y48000D02*Y47400D01*
X13000Y48000D02*X13300D01*
X13375Y47925D01*
Y47775D01*
X13300Y47700D02*X13375Y47775D01*
X13075Y47700D02*X13300D01*
X13555Y48000D02*Y47475D01*
X13630Y47400D01*
X14005Y47700D02*X14080Y47625D01*
X13855Y47700D02*X14005D01*
X13780Y47625D02*X13855Y47700D01*
X13780Y47625D02*Y47475D01*
X13855Y47400D01*
X14080Y47700D02*Y47475D01*
X14155Y47400D01*
X13855D02*X14005D01*
X14080Y47475D01*
X14410Y48000D02*Y47475D01*
X14485Y47400D01*
X14335Y47775D02*X14485D01*
X14710Y47400D02*X14935D01*
X14635Y47475D02*X14710Y47400D01*
X14635Y47625D02*Y47475D01*
Y47625D02*X14710Y47700D01*
X14860D01*
X14935Y47625D01*
X14635Y47550D02*X14935D01*
Y47625D02*Y47550D01*
X15415Y48000D02*Y47400D01*
X15340D02*X15415Y47475D01*
X15190Y47400D02*X15340D01*
X15115Y47475D02*X15190Y47400D01*
X15115Y47625D02*Y47475D01*
Y47625D02*X15190Y47700D01*
X15340D01*
X15415Y47625D01*
X15745Y47700D02*Y47625D01*
Y47475D02*Y47400D01*
X15595Y47925D02*Y47850D01*
Y47925D02*X15670Y48000D01*
X15820D01*
X15895Y47925D01*
Y47850D01*
X15745Y47700D02*X15895Y47850D01*
G04 Text: There are 5 different drill sizes used in this layout, 157 holes total *
X0Y49500D02*X300D01*
X150D02*Y48900D01*
X480Y49500D02*Y48900D01*
Y49125D02*X555Y49200D01*
X705D01*
X780Y49125D01*
Y48900D01*
X1035D02*X1260D01*
X960Y48975D02*X1035Y48900D01*
X960Y49125D02*Y48975D01*
Y49125D02*X1035Y49200D01*
X1185D01*
X1260Y49125D01*
X960Y49050D02*X1260D01*
Y49125D02*Y49050D01*
X1515Y49125D02*Y48900D01*
Y49125D02*X1590Y49200D01*
X1740D01*
X1440D02*X1515Y49125D01*
X1995Y48900D02*X2220D01*
X1920Y48975D02*X1995Y48900D01*
X1920Y49125D02*Y48975D01*
Y49125D02*X1995Y49200D01*
X2145D01*
X2220Y49125D01*
X1920Y49050D02*X2220D01*
Y49125D02*Y49050D01*
X2895Y49200D02*X2970Y49125D01*
X2745Y49200D02*X2895D01*
X2670Y49125D02*X2745Y49200D01*
X2670Y49125D02*Y48975D01*
X2745Y48900D01*
X2970Y49200D02*Y48975D01*
X3045Y48900D01*
X2745D02*X2895D01*
X2970Y48975D01*
X3300Y49125D02*Y48900D01*
Y49125D02*X3375Y49200D01*
X3525D01*
X3225D02*X3300Y49125D01*
X3781Y48900D02*X4006D01*
X3706Y48975D02*X3781Y48900D01*
X3706Y49125D02*Y48975D01*
Y49125D02*X3781Y49200D01*
X3931D01*
X4006Y49125D01*
X3706Y49050D02*X4006D01*
Y49125D02*Y49050D01*
X4456Y49500D02*X4756D01*
X4456D02*Y49200D01*
X4531Y49275D01*
X4681D01*
X4756Y49200D01*
Y48975D01*
X4681Y48900D02*X4756Y48975D01*
X4531Y48900D02*X4681D01*
X4456Y48975D02*X4531Y48900D01*
X5506Y49500D02*Y48900D01*
X5431D02*X5506Y48975D01*
X5281Y48900D02*X5431D01*
X5206Y48975D02*X5281Y48900D01*
X5206Y49125D02*Y48975D01*
Y49125D02*X5281Y49200D01*
X5431D01*
X5506Y49125D01*
X5686Y49350D02*Y49275D01*
Y49125D02*Y48900D01*
X5911Y49425D02*Y48900D01*
Y49425D02*X5986Y49500D01*
X6061D01*
X5836Y49200D02*X5986D01*
X6286Y49425D02*Y48900D01*
Y49425D02*X6361Y49500D01*
X6436D01*
X6211Y49200D02*X6361D01*
X6661Y48900D02*X6886D01*
X6586Y48975D02*X6661Y48900D01*
X6586Y49125D02*Y48975D01*
Y49125D02*X6661Y49200D01*
X6811D01*
X6886Y49125D01*
X6586Y49050D02*X6886D01*
Y49125D02*Y49050D01*
X7142Y49125D02*Y48900D01*
Y49125D02*X7217Y49200D01*
X7367D01*
X7067D02*X7142Y49125D01*
X7622Y48900D02*X7847D01*
X7547Y48975D02*X7622Y48900D01*
X7547Y49125D02*Y48975D01*
Y49125D02*X7622Y49200D01*
X7772D01*
X7847Y49125D01*
X7547Y49050D02*X7847D01*
Y49125D02*Y49050D01*
X8102Y49125D02*Y48900D01*
Y49125D02*X8177Y49200D01*
X8252D01*
X8327Y49125D01*
Y48900D01*
X8027Y49200D02*X8102Y49125D01*
X8582Y49500D02*Y48975D01*
X8657Y48900D01*
X8507Y49275D02*X8657D01*
X9377Y49500D02*Y48900D01*
X9302D02*X9377Y48975D01*
X9152Y48900D02*X9302D01*
X9077Y48975D02*X9152Y48900D01*
X9077Y49125D02*Y48975D01*
Y49125D02*X9152Y49200D01*
X9302D01*
X9377Y49125D01*
X9632D02*Y48900D01*
Y49125D02*X9707Y49200D01*
X9857D01*
X9557D02*X9632Y49125D01*
X10038Y49350D02*Y49275D01*
Y49125D02*Y48900D01*
X10188Y49500D02*Y48975D01*
X10263Y48900D01*
X10413Y49500D02*Y48975D01*
X10488Y48900D01*
X10983D02*X11208D01*
X11283Y48975D01*
X11208Y49050D02*X11283Y48975D01*
X10983Y49050D02*X11208D01*
X10908Y49125D02*X10983Y49050D01*
X10908Y49125D02*X10983Y49200D01*
X11208D01*
X11283Y49125D01*
X10908Y48975D02*X10983Y48900D01*
X11463Y49350D02*Y49275D01*
Y49125D02*Y48900D01*
X11613Y49200D02*X11913D01*
X11613Y48900D02*X11913Y49200D01*
X11613Y48900D02*X11913D01*
X12168D02*X12393D01*
X12093Y48975D02*X12168Y48900D01*
X12093Y49125D02*Y48975D01*
Y49125D02*X12168Y49200D01*
X12318D01*
X12393Y49125D01*
X12093Y49050D02*X12393D01*
Y49125D02*Y49050D01*
X12649Y48900D02*X12874D01*
X12949Y48975D01*
X12874Y49050D02*X12949Y48975D01*
X12649Y49050D02*X12874D01*
X12574Y49125D02*X12649Y49050D01*
X12574Y49125D02*X12649Y49200D01*
X12874D01*
X12949Y49125D01*
X12574Y48975D02*X12649Y48900D01*
X13399Y49200D02*Y48975D01*
X13474Y48900D01*
X13624D01*
X13699Y48975D01*
Y49200D02*Y48975D01*
X13954Y48900D02*X14179D01*
X14254Y48975D01*
X14179Y49050D02*X14254Y48975D01*
X13954Y49050D02*X14179D01*
X13879Y49125D02*X13954Y49050D01*
X13879Y49125D02*X13954Y49200D01*
X14179D01*
X14254Y49125D01*
X13879Y48975D02*X13954Y48900D01*
X14509D02*X14734D01*
X14434Y48975D02*X14509Y48900D01*
X14434Y49125D02*Y48975D01*
Y49125D02*X14509Y49200D01*
X14659D01*
X14734Y49125D01*
X14434Y49050D02*X14734D01*
Y49125D02*Y49050D01*
X15214Y49500D02*Y48900D01*
X15139D02*X15214Y48975D01*
X14989Y48900D02*X15139D01*
X14914Y48975D02*X14989Y48900D01*
X14914Y49125D02*Y48975D01*
Y49125D02*X14989Y49200D01*
X15139D01*
X15214Y49125D01*
X15664Y49350D02*Y49275D01*
Y49125D02*Y48900D01*
X15889Y49125D02*Y48900D01*
Y49125D02*X15964Y49200D01*
X16039D01*
X16114Y49125D01*
Y48900D01*
X15814Y49200D02*X15889Y49125D01*
X16640Y49500D02*Y48975D01*
X16715Y48900D01*
X16565Y49275D02*X16715D01*
X16865Y49500D02*Y48900D01*
Y49125D02*X16940Y49200D01*
X17090D01*
X17165Y49125D01*
Y48900D01*
X17345Y49350D02*Y49275D01*
Y49125D02*Y48900D01*
X17570D02*X17795D01*
X17870Y48975D01*
X17795Y49050D02*X17870Y48975D01*
X17570Y49050D02*X17795D01*
X17495Y49125D02*X17570Y49050D01*
X17495Y49125D02*X17570Y49200D01*
X17795D01*
X17870Y49125D01*
X17495Y48975D02*X17570Y48900D01*
X18320Y49500D02*Y48975D01*
X18395Y48900D01*
X18770Y49200D02*X18845Y49125D01*
X18620Y49200D02*X18770D01*
X18545Y49125D02*X18620Y49200D01*
X18545Y49125D02*Y48975D01*
X18620Y48900D01*
X18845Y49200D02*Y48975D01*
X18920Y48900D01*
X18620D02*X18770D01*
X18845Y48975D01*
X19101Y49200D02*Y48975D01*
X19176Y48900D01*
X19401Y49200D02*Y48750D01*
X19326Y48675D02*X19401Y48750D01*
X19176Y48675D02*X19326D01*
X19101Y48750D02*X19176Y48675D01*
Y48900D02*X19326D01*
X19401Y48975D01*
X19581Y49125D02*Y48975D01*
Y49125D02*X19656Y49200D01*
X19806D01*
X19881Y49125D01*
Y48975D01*
X19806Y48900D02*X19881Y48975D01*
X19656Y48900D02*X19806D01*
X19581Y48975D02*X19656Y48900D01*
X20061Y49200D02*Y48975D01*
X20136Y48900D01*
X20286D01*
X20361Y48975D01*
Y49200D02*Y48975D01*
X20616Y49500D02*Y48975D01*
X20691Y48900D01*
X20541Y49275D02*X20691D01*
X20841Y48750D02*X20991Y48900D01*
X21516D02*X21666D01*
X21591Y49500D02*Y48900D01*
X21441Y49350D02*X21591Y49500D01*
X21846D02*X22146D01*
X21846D02*Y49200D01*
X21921Y49275D01*
X22071D01*
X22146Y49200D01*
Y48975D01*
X22071Y48900D02*X22146Y48975D01*
X21921Y48900D02*X22071D01*
X21846Y48975D02*X21921Y48900D01*
X22327D02*X22702Y49275D01*
Y49500D02*Y49275D01*
X22327Y49500D02*X22702D01*
X23152D02*Y48900D01*
Y49125D02*X23227Y49200D01*
X23377D01*
X23452Y49125D01*
Y48900D01*
X23632Y49125D02*Y48975D01*
Y49125D02*X23707Y49200D01*
X23857D01*
X23932Y49125D01*
Y48975D01*
X23857Y48900D02*X23932Y48975D01*
X23707Y48900D02*X23857D01*
X23632Y48975D02*X23707Y48900D01*
X24112Y49500D02*Y48975D01*
X24187Y48900D01*
X24412D02*X24637D01*
X24337Y48975D02*X24412Y48900D01*
X24337Y49125D02*Y48975D01*
Y49125D02*X24412Y49200D01*
X24562D01*
X24637Y49125D01*
X24337Y49050D02*X24637D01*
Y49125D02*Y49050D01*
X24892Y48900D02*X25117D01*
X25192Y48975D01*
X25117Y49050D02*X25192Y48975D01*
X24892Y49050D02*X25117D01*
X24817Y49125D02*X24892Y49050D01*
X24817Y49125D02*X24892Y49200D01*
X25117D01*
X25192Y49125D01*
X24817Y48975D02*X24892Y48900D01*
X25717Y49500D02*Y48975D01*
X25792Y48900D01*
X25642Y49275D02*X25792D01*
X25943Y49125D02*Y48975D01*
Y49125D02*X26018Y49200D01*
X26168D01*
X26243Y49125D01*
Y48975D01*
X26168Y48900D02*X26243Y48975D01*
X26018Y48900D02*X26168D01*
X25943Y48975D02*X26018Y48900D01*
X26498Y49500D02*Y48975D01*
X26573Y48900D01*
X26423Y49275D02*X26573D01*
X26948Y49200D02*X27023Y49125D01*
X26798Y49200D02*X26948D01*
X26723Y49125D02*X26798Y49200D01*
X26723Y49125D02*Y48975D01*
X26798Y48900D01*
X27023Y49200D02*Y48975D01*
X27098Y48900D01*
X26798D02*X26948D01*
X27023Y48975D01*
X27278Y49500D02*Y48975D01*
X27353Y48900D01*
G04 Text: Maximum Dimensions: 3000 mils wide, 3900 mils high *
X20000Y40500D02*Y39900D01*
Y40500D02*X20225Y40275D01*
X20450Y40500D01*
Y39900D01*
X20855Y40200D02*X20930Y40125D01*
X20705Y40200D02*X20855D01*
X20630Y40125D02*X20705Y40200D01*
X20630Y40125D02*Y39975D01*
X20705Y39900D01*
X20930Y40200D02*Y39975D01*
X21005Y39900D01*
X20705D02*X20855D01*
X20930Y39975D01*
X21185Y40200D02*X21485Y39900D01*
X21185D02*X21485Y40200D01*
X21665Y40350D02*Y40275D01*
Y40125D02*Y39900D01*
X21890Y40125D02*Y39900D01*
Y40125D02*X21965Y40200D01*
X22040D01*
X22115Y40125D01*
Y39900D01*
Y40125D02*X22190Y40200D01*
X22265D01*
X22340Y40125D01*
Y39900D01*
X21815Y40200D02*X21890Y40125D01*
X22520Y40200D02*Y39975D01*
X22595Y39900D01*
X22745D01*
X22820Y39975D01*
Y40200D02*Y39975D01*
X23075Y40125D02*Y39900D01*
Y40125D02*X23150Y40200D01*
X23225D01*
X23300Y40125D01*
Y39900D01*
Y40125D02*X23375Y40200D01*
X23450D01*
X23525Y40125D01*
Y39900D01*
X23000Y40200D02*X23075Y40125D01*
X24051Y40500D02*Y39900D01*
X24276Y40500D02*X24351Y40425D01*
Y39975D01*
X24276Y39900D02*X24351Y39975D01*
X23976Y39900D02*X24276D01*
X23976Y40500D02*X24276D01*
X24531Y40350D02*Y40275D01*
Y40125D02*Y39900D01*
X24756Y40125D02*Y39900D01*
Y40125D02*X24831Y40200D01*
X24906D01*
X24981Y40125D01*
Y39900D01*
Y40125D02*X25056Y40200D01*
X25131D01*
X25206Y40125D01*
Y39900D01*
X24681Y40200D02*X24756Y40125D01*
X25461Y39900D02*X25686D01*
X25386Y39975D02*X25461Y39900D01*
X25386Y40125D02*Y39975D01*
Y40125D02*X25461Y40200D01*
X25611D01*
X25686Y40125D01*
X25386Y40050D02*X25686D01*
Y40125D02*Y40050D01*
X25941Y40125D02*Y39900D01*
Y40125D02*X26016Y40200D01*
X26091D01*
X26166Y40125D01*
Y39900D01*
X25866Y40200D02*X25941Y40125D01*
X26421Y39900D02*X26646D01*
X26721Y39975D01*
X26646Y40050D02*X26721Y39975D01*
X26421Y40050D02*X26646D01*
X26346Y40125D02*X26421Y40050D01*
X26346Y40125D02*X26421Y40200D01*
X26646D01*
X26721Y40125D01*
X26346Y39975D02*X26421Y39900D01*
X26901Y40350D02*Y40275D01*
Y40125D02*Y39900D01*
X27052Y40125D02*Y39975D01*
Y40125D02*X27127Y40200D01*
X27277D01*
X27352Y40125D01*
Y39975D01*
X27277Y39900D02*X27352Y39975D01*
X27127Y39900D02*X27277D01*
X27052Y39975D02*X27127Y39900D01*
X27607Y40125D02*Y39900D01*
Y40125D02*X27682Y40200D01*
X27757D01*
X27832Y40125D01*
Y39900D01*
X27532Y40200D02*X27607Y40125D01*
X28087Y39900D02*X28312D01*
X28387Y39975D01*
X28312Y40050D02*X28387Y39975D01*
X28087Y40050D02*X28312D01*
X28012Y40125D02*X28087Y40050D01*
X28012Y40125D02*X28087Y40200D01*
X28312D01*
X28387Y40125D01*
X28012Y39975D02*X28087Y39900D01*
X28567Y40275D02*X28642D01*
X28567Y40125D02*X28642D01*
X29092Y40425D02*X29167Y40500D01*
X29317D01*
X29392Y40425D01*
Y39975D01*
X29317Y39900D02*X29392Y39975D01*
X29167Y39900D02*X29317D01*
X29092Y39975D02*X29167Y39900D01*
Y40200D02*X29392D01*
X29572Y39975D02*X29647Y39900D01*
X29572Y40425D02*Y39975D01*
Y40425D02*X29647Y40500D01*
X29797D01*
X29872Y40425D01*
Y39975D01*
X29797Y39900D02*X29872Y39975D01*
X29647Y39900D02*X29797D01*
X29572Y40050D02*X29872Y40350D01*
X30053Y39975D02*X30128Y39900D01*
X30053Y40425D02*Y39975D01*
Y40425D02*X30128Y40500D01*
X30278D01*
X30353Y40425D01*
Y39975D01*
X30278Y39900D02*X30353Y39975D01*
X30128Y39900D02*X30278D01*
X30053Y40050D02*X30353Y40350D01*
X30533Y39975D02*X30608Y39900D01*
X30533Y40425D02*Y39975D01*
Y40425D02*X30608Y40500D01*
X30758D01*
X30833Y40425D01*
Y39975D01*
X30758Y39900D02*X30833Y39975D01*
X30608Y39900D02*X30758D01*
X30533Y40050D02*X30833Y40350D01*
X31358Y40125D02*Y39900D01*
Y40125D02*X31433Y40200D01*
X31508D01*
X31583Y40125D01*
Y39900D01*
Y40125D02*X31658Y40200D01*
X31733D01*
X31808Y40125D01*
Y39900D01*
X31283Y40200D02*X31358Y40125D01*
X31988Y40350D02*Y40275D01*
Y40125D02*Y39900D01*
X32138Y40500D02*Y39975D01*
X32213Y39900D01*
X32438D02*X32663D01*
X32738Y39975D01*
X32663Y40050D02*X32738Y39975D01*
X32438Y40050D02*X32663D01*
X32363Y40125D02*X32438Y40050D01*
X32363Y40125D02*X32438Y40200D01*
X32663D01*
X32738Y40125D01*
X32363Y39975D02*X32438Y39900D01*
X33188Y40200D02*Y39975D01*
X33263Y39900D01*
X33338D01*
X33413Y39975D01*
Y40200D02*Y39975D01*
X33488Y39900D01*
X33563D01*
X33638Y39975D01*
Y40200D02*Y39975D01*
X33819Y40350D02*Y40275D01*
Y40125D02*Y39900D01*
X34269Y40500D02*Y39900D01*
X34194D02*X34269Y39975D01*
X34044Y39900D02*X34194D01*
X33969Y39975D02*X34044Y39900D01*
X33969Y40125D02*Y39975D01*
Y40125D02*X34044Y40200D01*
X34194D01*
X34269Y40125D01*
X34524Y39900D02*X34749D01*
X34449Y39975D02*X34524Y39900D01*
X34449Y40125D02*Y39975D01*
Y40125D02*X34524Y40200D01*
X34674D01*
X34749Y40125D01*
X34449Y40050D02*X34749D01*
Y40125D02*Y40050D01*
X34929Y39750D02*X35079Y39900D01*
X35529Y40425D02*X35604Y40500D01*
X35754D01*
X35829Y40425D01*
Y39975D01*
X35754Y39900D02*X35829Y39975D01*
X35604Y39900D02*X35754D01*
X35529Y39975D02*X35604Y39900D01*
Y40200D02*X35829D01*
X36009Y39900D02*X36309Y40200D01*
Y40425D02*Y40200D01*
X36234Y40500D02*X36309Y40425D01*
X36084Y40500D02*X36234D01*
X36009Y40425D02*X36084Y40500D01*
X36009Y40425D02*Y40275D01*
X36084Y40200D01*
X36309D01*
X36489Y39975D02*X36564Y39900D01*
X36489Y40425D02*Y39975D01*
Y40425D02*X36564Y40500D01*
X36714D01*
X36789Y40425D01*
Y39975D01*
X36714Y39900D02*X36789Y39975D01*
X36564Y39900D02*X36714D01*
X36489Y40050D02*X36789Y40350D01*
X36970Y39975D02*X37045Y39900D01*
X36970Y40425D02*Y39975D01*
Y40425D02*X37045Y40500D01*
X37195D01*
X37270Y40425D01*
Y39975D01*
X37195Y39900D02*X37270Y39975D01*
X37045Y39900D02*X37195D01*
X36970Y40050D02*X37270Y40350D01*
X37795Y40125D02*Y39900D01*
Y40125D02*X37870Y40200D01*
X37945D01*
X38020Y40125D01*
Y39900D01*
Y40125D02*X38095Y40200D01*
X38170D01*
X38245Y40125D01*
Y39900D01*
X37720Y40200D02*X37795Y40125D01*
X38425Y40350D02*Y40275D01*
Y40125D02*Y39900D01*
X38575Y40500D02*Y39975D01*
X38650Y39900D01*
X38875D02*X39100D01*
X39175Y39975D01*
X39100Y40050D02*X39175Y39975D01*
X38875Y40050D02*X39100D01*
X38800Y40125D02*X38875Y40050D01*
X38800Y40125D02*X38875Y40200D01*
X39100D01*
X39175Y40125D01*
X38800Y39975D02*X38875Y39900D01*
X39625Y40500D02*Y39900D01*
Y40125D02*X39700Y40200D01*
X39850D01*
X39925Y40125D01*
Y39900D01*
X40106Y40350D02*Y40275D01*
Y40125D02*Y39900D01*
X40481Y40200D02*X40556Y40125D01*
X40331Y40200D02*X40481D01*
X40256Y40125D02*X40331Y40200D01*
X40256Y40125D02*Y39975D01*
X40331Y39900D01*
X40481D01*
X40556Y39975D01*
X40256Y39750D02*X40331Y39675D01*
X40481D01*
X40556Y39750D01*
Y40200D02*Y39750D01*
X40736Y40500D02*Y39900D01*
Y40125D02*X40811Y40200D01*
X40961D01*
X41036Y40125D01*
Y39900D01*
*G04 Outline ***
G54D30*X0Y0D02*X30000Y0D01*
X30000Y0D02*X30000Y39000D01*
X30000Y39000D02*X0Y39000D01*
X0Y39000D02*X0Y0D01*
G04 Text: Board outline is the centerline of this 10 mil rectangle - 0,0 to 3000,3900 mils *
G54D31*Y-800D02*X300D01*
X375Y-725D01*
Y-575D02*Y-725D01*
X300Y-500D02*X375Y-575D01*
X75Y-500D02*X300D01*
X75Y-200D02*Y-800D01*
X0Y-200D02*X300D01*
X375Y-275D01*
Y-425D01*
X300Y-500D02*X375Y-425D01*
X555Y-575D02*Y-725D01*
Y-575D02*X630Y-500D01*
X780D01*
X855Y-575D01*
Y-725D01*
X780Y-800D02*X855Y-725D01*
X630Y-800D02*X780D01*
X555Y-725D02*X630Y-800D01*
X1260Y-500D02*X1335Y-575D01*
X1110Y-500D02*X1260D01*
X1035Y-575D02*X1110Y-500D01*
X1035Y-575D02*Y-725D01*
X1110Y-800D01*
X1335Y-500D02*Y-725D01*
X1410Y-800D01*
X1110D02*X1260D01*
X1335Y-725D01*
X1665Y-575D02*Y-800D01*
Y-575D02*X1740Y-500D01*
X1890D01*
X1590D02*X1665Y-575D01*
X2370Y-200D02*Y-800D01*
X2295D02*X2370Y-725D01*
X2145Y-800D02*X2295D01*
X2070Y-725D02*X2145Y-800D01*
X2070Y-575D02*Y-725D01*
Y-575D02*X2145Y-500D01*
X2295D01*
X2370Y-575D01*
X2820D02*Y-725D01*
Y-575D02*X2895Y-500D01*
X3045D01*
X3120Y-575D01*
Y-725D01*
X3045Y-800D02*X3120Y-725D01*
X2895Y-800D02*X3045D01*
X2820Y-725D02*X2895Y-800D01*
X3300Y-500D02*Y-725D01*
X3375Y-800D01*
X3525D01*
X3600Y-725D01*
Y-500D02*Y-725D01*
X3856Y-200D02*Y-725D01*
X3931Y-800D01*
X3781Y-425D02*X3931D01*
X4081Y-200D02*Y-725D01*
X4156Y-800D01*
X4306Y-350D02*Y-425D01*
Y-575D02*Y-800D01*
X4531Y-575D02*Y-800D01*
Y-575D02*X4606Y-500D01*
X4681D01*
X4756Y-575D01*
Y-800D01*
X4456Y-500D02*X4531Y-575D01*
X5011Y-800D02*X5236D01*
X4936Y-725D02*X5011Y-800D01*
X4936Y-575D02*Y-725D01*
Y-575D02*X5011Y-500D01*
X5161D01*
X5236Y-575D01*
X4936Y-650D02*X5236D01*
Y-575D02*Y-650D01*
X5686Y-350D02*Y-425D01*
Y-575D02*Y-800D01*
X5911D02*X6136D01*
X6211Y-725D01*
X6136Y-650D02*X6211Y-725D01*
X5911Y-650D02*X6136D01*
X5836Y-575D02*X5911Y-650D01*
X5836Y-575D02*X5911Y-500D01*
X6136D01*
X6211Y-575D01*
X5836Y-725D02*X5911Y-800D01*
X6737Y-200D02*Y-725D01*
X6812Y-800D01*
X6662Y-425D02*X6812D01*
X6962Y-200D02*Y-800D01*
Y-575D02*X7037Y-500D01*
X7187D01*
X7262Y-575D01*
Y-800D01*
X7517D02*X7742D01*
X7442Y-725D02*X7517Y-800D01*
X7442Y-575D02*Y-725D01*
Y-575D02*X7517Y-500D01*
X7667D01*
X7742Y-575D01*
X7442Y-650D02*X7742D01*
Y-575D02*Y-650D01*
X8267Y-500D02*X8492D01*
X8192Y-575D02*X8267Y-500D01*
X8192Y-575D02*Y-725D01*
X8267Y-800D01*
X8492D01*
X8747D02*X8972D01*
X8672Y-725D02*X8747Y-800D01*
X8672Y-575D02*Y-725D01*
Y-575D02*X8747Y-500D01*
X8897D01*
X8972Y-575D01*
X8672Y-650D02*X8972D01*
Y-575D02*Y-650D01*
X9227Y-575D02*Y-800D01*
Y-575D02*X9302Y-500D01*
X9377D01*
X9452Y-575D01*
Y-800D01*
X9152Y-500D02*X9227Y-575D01*
X9708Y-200D02*Y-725D01*
X9783Y-800D01*
X9633Y-425D02*X9783D01*
X10008Y-800D02*X10233D01*
X9933Y-725D02*X10008Y-800D01*
X9933Y-575D02*Y-725D01*
Y-575D02*X10008Y-500D01*
X10158D01*
X10233Y-575D01*
X9933Y-650D02*X10233D01*
Y-575D02*Y-650D01*
X10488Y-575D02*Y-800D01*
Y-575D02*X10563Y-500D01*
X10713D01*
X10413D02*X10488Y-575D01*
X10893Y-200D02*Y-725D01*
X10968Y-800D01*
X11118Y-350D02*Y-425D01*
Y-575D02*Y-800D01*
X11343Y-575D02*Y-800D01*
Y-575D02*X11418Y-500D01*
X11493D01*
X11568Y-575D01*
Y-800D01*
X11268Y-500D02*X11343Y-575D01*
X11823Y-800D02*X12048D01*
X11748Y-725D02*X11823Y-800D01*
X11748Y-575D02*Y-725D01*
Y-575D02*X11823Y-500D01*
X11973D01*
X12048Y-575D01*
X11748Y-650D02*X12048D01*
Y-575D02*Y-650D01*
X12499Y-575D02*Y-725D01*
Y-575D02*X12574Y-500D01*
X12724D01*
X12799Y-575D01*
Y-725D01*
X12724Y-800D02*X12799Y-725D01*
X12574Y-800D02*X12724D01*
X12499Y-725D02*X12574Y-800D01*
X13054Y-275D02*Y-800D01*
Y-275D02*X13129Y-200D01*
X13204D01*
X12979Y-500D02*X13129D01*
X13699Y-200D02*Y-725D01*
X13774Y-800D01*
X13624Y-425D02*X13774D01*
X13924Y-200D02*Y-800D01*
Y-575D02*X13999Y-500D01*
X14149D01*
X14224Y-575D01*
Y-800D01*
X14404Y-350D02*Y-425D01*
Y-575D02*Y-800D01*
X14629D02*X14854D01*
X14929Y-725D01*
X14854Y-650D02*X14929Y-725D01*
X14629Y-650D02*X14854D01*
X14554Y-575D02*X14629Y-650D01*
X14554Y-575D02*X14629Y-500D01*
X14854D01*
X14929Y-575D01*
X14554Y-725D02*X14629Y-800D01*
X15454D02*X15604D01*
X15529Y-200D02*Y-800D01*
X15379Y-350D02*X15529Y-200D01*
X15785Y-725D02*X15860Y-800D01*
X15785Y-275D02*Y-725D01*
Y-275D02*X15860Y-200D01*
X16010D01*
X16085Y-275D01*
Y-725D01*
X16010Y-800D02*X16085Y-725D01*
X15860Y-800D02*X16010D01*
X15785Y-650D02*X16085Y-350D01*
X16610Y-575D02*Y-800D01*
Y-575D02*X16685Y-500D01*
X16760D01*
X16835Y-575D01*
Y-800D01*
Y-575D02*X16910Y-500D01*
X16985D01*
X17060Y-575D01*
Y-800D01*
X16535Y-500D02*X16610Y-575D01*
X17240Y-350D02*Y-425D01*
Y-575D02*Y-800D01*
X17390Y-200D02*Y-725D01*
X17465Y-800D01*
X17960Y-575D02*Y-800D01*
Y-575D02*X18035Y-500D01*
X18185D01*
X17885D02*X17960Y-575D01*
X18440Y-800D02*X18665D01*
X18365Y-725D02*X18440Y-800D01*
X18365Y-575D02*Y-725D01*
Y-575D02*X18440Y-500D01*
X18590D01*
X18665Y-575D01*
X18365Y-650D02*X18665D01*
Y-575D02*Y-650D01*
X18921Y-500D02*X19146D01*
X18846Y-575D02*X18921Y-500D01*
X18846Y-575D02*Y-725D01*
X18921Y-800D01*
X19146D01*
X19401Y-200D02*Y-725D01*
X19476Y-800D01*
X19326Y-425D02*X19476D01*
X19851Y-500D02*X19926Y-575D01*
X19701Y-500D02*X19851D01*
X19626Y-575D02*X19701Y-500D01*
X19626Y-575D02*Y-725D01*
X19701Y-800D01*
X19926Y-500D02*Y-725D01*
X20001Y-800D01*
X19701D02*X19851D01*
X19926Y-725D01*
X20256Y-575D02*Y-800D01*
Y-575D02*X20331Y-500D01*
X20406D01*
X20481Y-575D01*
Y-800D01*
X20181Y-500D02*X20256Y-575D01*
X20886Y-500D02*X20961Y-575D01*
X20736Y-500D02*X20886D01*
X20661Y-575D02*X20736Y-500D01*
X20661Y-575D02*Y-725D01*
X20736Y-800D01*
X20886D01*
X20961Y-725D01*
X20661Y-950D02*X20736Y-1025D01*
X20886D01*
X20961Y-950D01*
Y-500D02*Y-950D01*
X21141Y-200D02*Y-725D01*
X21216Y-800D01*
X21441D02*X21666D01*
X21366Y-725D02*X21441Y-800D01*
X21366Y-575D02*Y-725D01*
Y-575D02*X21441Y-500D01*
X21591D01*
X21666Y-575D01*
X21366Y-650D02*X21666D01*
Y-575D02*Y-650D01*
X22117Y-500D02*X22417D01*
X22867Y-725D02*X22942Y-800D01*
X22867Y-275D02*Y-725D01*
Y-275D02*X22942Y-200D01*
X23092D01*
X23167Y-275D01*
Y-725D01*
X23092Y-800D02*X23167Y-725D01*
X22942Y-800D02*X23092D01*
X22867Y-650D02*X23167Y-350D01*
X23347Y-950D02*X23497Y-800D01*
X23677Y-725D02*X23752Y-800D01*
X23677Y-275D02*Y-725D01*
Y-275D02*X23752Y-200D01*
X23902D01*
X23977Y-275D01*
Y-725D01*
X23902Y-800D02*X23977Y-725D01*
X23752Y-800D02*X23902D01*
X23677Y-650D02*X23977Y-350D01*
X24502Y-200D02*Y-725D01*
X24577Y-800D01*
X24427Y-425D02*X24577D01*
X24727Y-575D02*Y-725D01*
Y-575D02*X24802Y-500D01*
X24952D01*
X25027Y-575D01*
Y-725D01*
X24952Y-800D02*X25027Y-725D01*
X24802Y-800D02*X24952D01*
X24727Y-725D02*X24802Y-800D01*
X25477Y-275D02*X25552Y-200D01*
X25702D01*
X25777Y-275D01*
Y-725D01*
X25702Y-800D02*X25777Y-725D01*
X25552Y-800D02*X25702D01*
X25477Y-725D02*X25552Y-800D01*
Y-500D02*X25777D01*
X25958Y-725D02*X26033Y-800D01*
X25958Y-275D02*Y-725D01*
Y-275D02*X26033Y-200D01*
X26183D01*
X26258Y-275D01*
Y-725D01*
X26183Y-800D02*X26258Y-725D01*
X26033Y-800D02*X26183D01*
X25958Y-650D02*X26258Y-350D01*
X26438Y-725D02*X26513Y-800D01*
X26438Y-275D02*Y-725D01*
Y-275D02*X26513Y-200D01*
X26663D01*
X26738Y-275D01*
Y-725D01*
X26663Y-800D02*X26738Y-725D01*
X26513Y-800D02*X26663D01*
X26438Y-650D02*X26738Y-350D01*
X26918Y-725D02*X26993Y-800D01*
X26918Y-275D02*Y-725D01*
Y-275D02*X26993Y-200D01*
X27143D01*
X27218Y-275D01*
Y-725D01*
X27143Y-800D02*X27218Y-725D01*
X26993Y-800D02*X27143D01*
X26918Y-650D02*X27218Y-350D01*
X27398Y-950D02*X27548Y-800D01*
X27728Y-275D02*X27803Y-200D01*
X27953D01*
X28028Y-275D01*
Y-725D01*
X27953Y-800D02*X28028Y-725D01*
X27803Y-800D02*X27953D01*
X27728Y-725D02*X27803Y-800D01*
Y-500D02*X28028D01*
X28208Y-800D02*X28508Y-500D01*
Y-275D02*Y-500D01*
X28433Y-200D02*X28508Y-275D01*
X28283Y-200D02*X28433D01*
X28208Y-275D02*X28283Y-200D01*
X28208Y-275D02*Y-425D01*
X28283Y-500D01*
X28508D01*
X28689Y-725D02*X28764Y-800D01*
X28689Y-275D02*Y-725D01*
Y-275D02*X28764Y-200D01*
X28914D01*
X28989Y-275D01*
Y-725D01*
X28914Y-800D02*X28989Y-725D01*
X28764Y-800D02*X28914D01*
X28689Y-650D02*X28989Y-350D01*
X29169Y-725D02*X29244Y-800D01*
X29169Y-275D02*Y-725D01*
Y-275D02*X29244Y-200D01*
X29394D01*
X29469Y-275D01*
Y-725D01*
X29394Y-800D02*X29469Y-725D01*
X29244Y-800D02*X29394D01*
X29169Y-650D02*X29469Y-350D01*
X29994Y-575D02*Y-800D01*
Y-575D02*X30069Y-500D01*
X30144D01*
X30219Y-575D01*
Y-800D01*
Y-575D02*X30294Y-500D01*
X30369D01*
X30444Y-575D01*
Y-800D01*
X29919Y-500D02*X29994Y-575D01*
X30624Y-350D02*Y-425D01*
Y-575D02*Y-800D01*
X30774Y-200D02*Y-725D01*
X30849Y-800D01*
X31074D02*X31299D01*
X31374Y-725D01*
X31299Y-650D02*X31374Y-725D01*
X31074Y-650D02*X31299D01*
X30999Y-575D02*X31074Y-650D01*
X30999Y-575D02*X31074Y-500D01*
X31299D01*
X31374Y-575D01*
X30999Y-725D02*X31074Y-800D01*
G04 Text: Date: Thu Jun  9 05:21:42 2005 UTC *
X20075Y42000D02*Y41400D01*
X20300Y42000D02*X20375Y41925D01*
Y41475D01*
X20300Y41400D02*X20375Y41475D01*
X20000Y41400D02*X20300D01*
X20000Y42000D02*X20300D01*
X20780Y41700D02*X20855Y41625D01*
X20630Y41700D02*X20780D01*
X20555Y41625D02*X20630Y41700D01*
X20555Y41625D02*Y41475D01*
X20630Y41400D01*
X20855Y41700D02*Y41475D01*
X20930Y41400D01*
X20630D02*X20780D01*
X20855Y41475D01*
X21185Y42000D02*Y41475D01*
X21260Y41400D01*
X21110Y41775D02*X21260D01*
X21485Y41400D02*X21710D01*
X21410Y41475D02*X21485Y41400D01*
X21410Y41625D02*Y41475D01*
Y41625D02*X21485Y41700D01*
X21635D01*
X21710Y41625D01*
X21410Y41550D02*X21710D01*
Y41625D02*Y41550D01*
X21890Y41775D02*X21965D01*
X21890Y41625D02*X21965D01*
X22415Y42000D02*X22715D01*
X22565D02*Y41400D01*
X22895Y42000D02*Y41400D01*
Y41625D02*X22970Y41700D01*
X23120D01*
X23195Y41625D01*
Y41400D01*
X23376Y41700D02*Y41475D01*
X23451Y41400D01*
X23601D01*
X23676Y41475D01*
Y41700D02*Y41475D01*
X24126Y42000D02*X24351D01*
Y41475D01*
X24276Y41400D02*X24351Y41475D01*
X24201Y41400D02*X24276D01*
X24126Y41475D02*X24201Y41400D01*
X24531Y41700D02*Y41475D01*
X24606Y41400D01*
X24756D01*
X24831Y41475D01*
Y41700D02*Y41475D01*
X25086Y41625D02*Y41400D01*
Y41625D02*X25161Y41700D01*
X25236D01*
X25311Y41625D01*
Y41400D01*
X25011Y41700D02*X25086Y41625D01*
X26031Y41400D02*X26331Y41700D01*
Y41925D02*Y41700D01*
X26256Y42000D02*X26331Y41925D01*
X26106Y42000D02*X26256D01*
X26031Y41925D02*X26106Y42000D01*
X26031Y41925D02*Y41775D01*
X26106Y41700D01*
X26331D01*
X26781Y41475D02*X26856Y41400D01*
X26781Y41925D02*Y41475D01*
Y41925D02*X26856Y42000D01*
X27006D01*
X27081Y41925D01*
Y41475D01*
X27006Y41400D02*X27081Y41475D01*
X26856Y41400D02*X27006D01*
X26781Y41550D02*X27081Y41850D01*
X27261Y42000D02*X27561D01*
X27261D02*Y41700D01*
X27336Y41775D01*
X27486D01*
X27561Y41700D01*
Y41475D01*
X27486Y41400D02*X27561Y41475D01*
X27336Y41400D02*X27486D01*
X27261Y41475D02*X27336Y41400D01*
X27742Y41775D02*X27817D01*
X27742Y41625D02*X27817D01*
X27997Y41925D02*X28072Y42000D01*
X28297D01*
X28372Y41925D01*
Y41775D01*
X27997Y41400D02*X28372Y41775D01*
X27997Y41400D02*X28372D01*
X28627D02*X28777D01*
X28702Y42000D02*Y41400D01*
X28552Y41850D02*X28702Y42000D01*
X28957Y41775D02*X29032D01*
X28957Y41625D02*X29032D01*
X29212Y41700D02*X29512Y42000D01*
X29212Y41700D02*X29587D01*
X29512Y42000D02*Y41400D01*
X29767Y41925D02*X29842Y42000D01*
X30067D01*
X30142Y41925D01*
Y41775D01*
X29767Y41400D02*X30142Y41775D01*
X29767Y41400D02*X30142D01*
X30593Y41925D02*X30668Y42000D01*
X30893D01*
X30968Y41925D01*
Y41775D01*
X30593Y41400D02*X30968Y41775D01*
X30593Y41400D02*X30968D01*
X31148Y41475D02*X31223Y41400D01*
X31148Y41925D02*Y41475D01*
Y41925D02*X31223Y42000D01*
X31373D01*
X31448Y41925D01*
Y41475D01*
X31373Y41400D02*X31448Y41475D01*
X31223Y41400D02*X31373D01*
X31148Y41550D02*X31448Y41850D01*
X31628Y41475D02*X31703Y41400D01*
X31628Y41925D02*Y41475D01*
Y41925D02*X31703Y42000D01*
X31853D01*
X31928Y41925D01*
Y41475D01*
X31853Y41400D02*X31928Y41475D01*
X31703Y41400D02*X31853D01*
X31628Y41550D02*X31928Y41850D01*
X32108Y42000D02*X32408D01*
X32108D02*Y41700D01*
X32183Y41775D01*
X32333D01*
X32408Y41700D01*
Y41475D01*
X32333Y41400D02*X32408Y41475D01*
X32183Y41400D02*X32333D01*
X32108Y41475D02*X32183Y41400D01*
X32858Y42000D02*Y41475D01*
X32933Y41400D01*
X33083D01*
X33158Y41475D01*
Y42000D02*Y41475D01*
X33338Y42000D02*X33638D01*
X33488D02*Y41400D01*
X33893D02*X34118D01*
X33818Y41475D02*X33893Y41400D01*
X33818Y41925D02*Y41475D01*
Y41925D02*X33893Y42000D01*
X34118D01*
G04 Text: Author: Alan Garfield *
X20000Y43425D02*Y42900D01*
Y43425D02*X20075Y43500D01*
X20300D01*
X20375Y43425D01*
Y42900D01*
X20000Y43200D02*X20375D01*
X20555D02*Y42975D01*
X20630Y42900D01*
X20780D01*
X20855Y42975D01*
Y43200D02*Y42975D01*
X21110Y43500D02*Y42975D01*
X21185Y42900D01*
X21035Y43275D02*X21185D01*
X21335Y43500D02*Y42900D01*
Y43125D02*X21410Y43200D01*
X21560D01*
X21635Y43125D01*
Y42900D01*
X21815Y43125D02*Y42975D01*
Y43125D02*X21890Y43200D01*
X22040D01*
X22115Y43125D01*
Y42975D01*
X22040Y42900D02*X22115Y42975D01*
X21890Y42900D02*X22040D01*
X21815Y42975D02*X21890Y42900D01*
X22370Y43125D02*Y42900D01*
Y43125D02*X22445Y43200D01*
X22595D01*
X22295D02*X22370Y43125D01*
X22775Y43275D02*X22850D01*
X22775Y43125D02*X22850D01*
X23301Y43425D02*Y42900D01*
Y43425D02*X23376Y43500D01*
X23601D01*
X23676Y43425D01*
Y42900D01*
X23301Y43200D02*X23676D01*
X23856Y43500D02*Y42975D01*
X23931Y42900D01*
X24306Y43200D02*X24381Y43125D01*
X24156Y43200D02*X24306D01*
X24081Y43125D02*X24156Y43200D01*
X24081Y43125D02*Y42975D01*
X24156Y42900D01*
X24381Y43200D02*Y42975D01*
X24456Y42900D01*
X24156D02*X24306D01*
X24381Y42975D01*
X24711Y43125D02*Y42900D01*
Y43125D02*X24786Y43200D01*
X24861D01*
X24936Y43125D01*
Y42900D01*
X24636Y43200D02*X24711Y43125D01*
X25686Y43500D02*X25761Y43425D01*
X25461Y43500D02*X25686D01*
X25386Y43425D02*X25461Y43500D01*
X25386Y43425D02*Y42975D01*
X25461Y42900D01*
X25686D01*
X25761Y42975D01*
Y43125D02*Y42975D01*
X25686Y43200D02*X25761Y43125D01*
X25536Y43200D02*X25686D01*
X26166D02*X26241Y43125D01*
X26016Y43200D02*X26166D01*
X25941Y43125D02*X26016Y43200D01*
X25941Y43125D02*Y42975D01*
X26016Y42900D01*
X26241Y43200D02*Y42975D01*
X26316Y42900D01*
X26016D02*X26166D01*
X26241Y42975D01*
X26571Y43125D02*Y42900D01*
Y43125D02*X26646Y43200D01*
X26796D01*
X26496D02*X26571Y43125D01*
X27052Y43425D02*Y42900D01*
Y43425D02*X27127Y43500D01*
X27202D01*
X26977Y43200D02*X27127D01*
X27352Y43350D02*Y43275D01*
Y43125D02*Y42900D01*
X27577D02*X27802D01*
X27502Y42975D02*X27577Y42900D01*
X27502Y43125D02*Y42975D01*
Y43125D02*X27577Y43200D01*
X27727D01*
X27802Y43125D01*
X27502Y43050D02*X27802D01*
Y43125D02*Y43050D01*
X27982Y43500D02*Y42975D01*
X28057Y42900D01*
X28507Y43500D02*Y42900D01*
X28432D02*X28507Y42975D01*
X28282Y42900D02*X28432D01*
X28207Y42975D02*X28282Y42900D01*
X28207Y43125D02*Y42975D01*
Y43125D02*X28282Y43200D01*
X28432D01*
X28507Y43125D01*
G04 Text: Title: (unknown) - Fabrication Drawing *
X20000Y45000D02*X20300D01*
X20150D02*Y44400D01*
X20480Y44850D02*Y44775D01*
Y44625D02*Y44400D01*
X20705Y45000D02*Y44475D01*
X20780Y44400D01*
X20630Y44775D02*X20780D01*
X20930Y45000D02*Y44475D01*
X21005Y44400D01*
X21230D02*X21455D01*
X21155Y44475D02*X21230Y44400D01*
X21155Y44625D02*Y44475D01*
Y44625D02*X21230Y44700D01*
X21380D01*
X21455Y44625D01*
X21155Y44550D02*X21455D01*
Y44625D02*Y44550D01*
X21635Y44775D02*X21710D01*
X21635Y44625D02*X21710D01*
X22160Y44475D02*X22235Y44400D01*
X22160Y44925D02*X22235Y45000D01*
X22160Y44925D02*Y44475D01*
X22416Y44700D02*Y44475D01*
X22491Y44400D01*
X22641D01*
X22716Y44475D01*
Y44700D02*Y44475D01*
X22971Y44625D02*Y44400D01*
Y44625D02*X23046Y44700D01*
X23121D01*
X23196Y44625D01*
Y44400D01*
X22896Y44700D02*X22971Y44625D01*
X23376Y45000D02*Y44400D01*
Y44625D02*X23601Y44400D01*
X23376Y44625D02*X23526Y44775D01*
X23856Y44625D02*Y44400D01*
Y44625D02*X23931Y44700D01*
X24006D01*
X24081Y44625D01*
Y44400D01*
X23781Y44700D02*X23856Y44625D01*
X24261D02*Y44475D01*
Y44625D02*X24336Y44700D01*
X24486D01*
X24561Y44625D01*
Y44475D01*
X24486Y44400D02*X24561Y44475D01*
X24336Y44400D02*X24486D01*
X24261Y44475D02*X24336Y44400D01*
X24741Y44700D02*Y44475D01*
X24816Y44400D01*
X24891D01*
X24966Y44475D01*
Y44700D02*Y44475D01*
X25041Y44400D01*
X25116D01*
X25191Y44475D01*
Y44700D02*Y44475D01*
X25446Y44625D02*Y44400D01*
Y44625D02*X25521Y44700D01*
X25596D01*
X25671Y44625D01*
Y44400D01*
X25371Y44700D02*X25446Y44625D01*
X25852Y45000D02*X25927Y44925D01*
Y44475D01*
X25852Y44400D02*X25927Y44475D01*
X26377Y44700D02*X26677D01*
X27127Y45000D02*Y44400D01*
Y45000D02*X27427D01*
X27127Y44700D02*X27352D01*
X27832D02*X27907Y44625D01*
X27682Y44700D02*X27832D01*
X27607Y44625D02*X27682Y44700D01*
X27607Y44625D02*Y44475D01*
X27682Y44400D01*
X27907Y44700D02*Y44475D01*
X27982Y44400D01*
X27682D02*X27832D01*
X27907Y44475D01*
X28162Y45000D02*Y44400D01*
Y44475D02*X28237Y44400D01*
X28387D01*
X28462Y44475D01*
Y44625D02*Y44475D01*
X28387Y44700D02*X28462Y44625D01*
X28237Y44700D02*X28387D01*
X28162Y44625D02*X28237Y44700D01*
X28717Y44625D02*Y44400D01*
Y44625D02*X28792Y44700D01*
X28942D01*
X28642D02*X28717Y44625D01*
X29123Y44850D02*Y44775D01*
Y44625D02*Y44400D01*
X29348Y44700D02*X29573D01*
X29273Y44625D02*X29348Y44700D01*
X29273Y44625D02*Y44475D01*
X29348Y44400D01*
X29573D01*
X29978Y44700D02*X30053Y44625D01*
X29828Y44700D02*X29978D01*
X29753Y44625D02*X29828Y44700D01*
X29753Y44625D02*Y44475D01*
X29828Y44400D01*
X30053Y44700D02*Y44475D01*
X30128Y44400D01*
X29828D02*X29978D01*
X30053Y44475D01*
X30383Y45000D02*Y44475D01*
X30458Y44400D01*
X30308Y44775D02*X30458D01*
X30608Y44850D02*Y44775D01*
Y44625D02*Y44400D01*
X30758Y44625D02*Y44475D01*
Y44625D02*X30833Y44700D01*
X30983D01*
X31058Y44625D01*
Y44475D01*
X30983Y44400D02*X31058Y44475D01*
X30833Y44400D02*X30983D01*
X30758Y44475D02*X30833Y44400D01*
X31313Y44625D02*Y44400D01*
Y44625D02*X31388Y44700D01*
X31463D01*
X31538Y44625D01*
Y44400D01*
X31238Y44700D02*X31313Y44625D01*
X32064Y45000D02*Y44400D01*
X32289Y45000D02*X32364Y44925D01*
Y44475D01*
X32289Y44400D02*X32364Y44475D01*
X31989Y44400D02*X32289D01*
X31989Y45000D02*X32289D01*
X32619Y44625D02*Y44400D01*
Y44625D02*X32694Y44700D01*
X32844D01*
X32544D02*X32619Y44625D01*
X33249Y44700D02*X33324Y44625D01*
X33099Y44700D02*X33249D01*
X33024Y44625D02*X33099Y44700D01*
X33024Y44625D02*Y44475D01*
X33099Y44400D01*
X33324Y44700D02*Y44475D01*
X33399Y44400D01*
X33099D02*X33249D01*
X33324Y44475D01*
X33579Y44700D02*Y44475D01*
X33654Y44400D01*
X33729D01*
X33804Y44475D01*
Y44700D02*Y44475D01*
X33879Y44400D01*
X33954D01*
X34029Y44475D01*
Y44700D02*Y44475D01*
X34209Y44850D02*Y44775D01*
Y44625D02*Y44400D01*
X34434Y44625D02*Y44400D01*
Y44625D02*X34509Y44700D01*
X34584D01*
X34659Y44625D01*
Y44400D01*
X34359Y44700D02*X34434Y44625D01*
X35064Y44700D02*X35139Y44625D01*
X34914Y44700D02*X35064D01*
X34839Y44625D02*X34914Y44700D01*
X34839Y44625D02*Y44475D01*
X34914Y44400D01*
X35064D01*
X35139Y44475D01*
X34839Y44250D02*X34914Y44175D01*
X35064D01*
X35139Y44250D01*
Y44700D02*Y44250D01*
M02*
