M48
INCH,TZ
T01C0.020
T02C0.028
T03C0.030
T04C0.038
T05C0.078
%
T01
X022450Y006900
X022450Y008900
X013150Y002500
X009150Y002500
X005150Y003100
X009150Y003100
X005150Y004300
X009150Y004300
X013150Y003700
X009150Y003700
X017200Y028650
X013200Y028650
X029400Y028650
X025400Y028650
X019200Y003150
X019200Y007150
X016250Y027700
X020250Y027700
X007350Y025000
X007350Y029000
X013900Y001800
X015550Y011350
X005650Y033550
X006400Y032950
X005650Y026850
X006400Y026400
X014350Y031000
X017200Y034250
X017200Y031600
X025900Y035400
X020450Y026650
X016850Y026650
X018900Y032250
X018900Y038150
X007350Y031000
X029250Y031150
X026550Y031150
X015550Y012700
X029350Y008850
X006050Y020000
X011050Y020000
X014550Y020000
X023600Y020000
X019650Y012450
X024200Y035400
X027150Y008850
X002350Y034800
X006050Y034800
X000600Y013600
X013900Y007150
X005850Y013600
X016900Y011250
X016900Y007150
X020150Y003150
X020150Y008600
X017050Y012450
X025800Y009900
X025800Y006900
T02
X008150Y010800
X007150Y010800
X006150Y010800
X009450Y014550
X009450Y012550
X004150Y006050
X005150Y006050
X006150Y006050
X007150Y006050
X008150Y006050
X009150Y006050
X010150Y006050
X011150Y006050
X012150Y006050
X012150Y009050
X011150Y009050
X010150Y009050
X009150Y009050
X008150Y009050
X007150Y009050
X006150Y009050
X005150Y009050
X004150Y009050
X008150Y012550
X008150Y014550
X012302Y027014
X009354Y027015
X009350Y030000
X007350Y030000
X016250Y031400
X016250Y033400
X023525Y023059
X021556Y023059
X016250Y029950
X014250Y029950
X028550Y029950
X026550Y029950
X011325Y023059
X009356Y023059
X021550Y030000
X019550Y030000
X024502Y027014
X021554Y027015
X006900Y014550
X006900Y012550
T03
X007150Y001800
X007150Y000800
X019200Y001800
X019200Y000800
X018200Y001800
X018200Y000800
X017200Y001800
X017200Y000800
X016200Y001800
X016200Y000800
X015200Y001800
X015200Y000800
X006150Y001800
X006150Y000800
T04
X002750Y020800
X002750Y022800
X002736Y027231
X002736Y029231
X002736Y031231
X002736Y033231
X007350Y032250
X007850Y034250
X008350Y032250
X008850Y034250
X009350Y032250
X009850Y034250
X010350Y032250
X010850Y034250
X011350Y032250
X011850Y034250
X012350Y032250
X012850Y034250
X013350Y032250
X013850Y034250
X014350Y032250
X019550Y032250
X020050Y034250
X020550Y032250
X021050Y034250
X021550Y032250
X022050Y034250
X022550Y032250
X023050Y034250
X023550Y032250
X024050Y034250
X024550Y032250
X025050Y034250
X025550Y032250
X026050Y034250
X026550Y032250
T05
X001050Y002050
X001050Y038050
X028950Y002050
X028950Y038050
M30
